HIERARCHY
ROOT Hips
{
	OFFSET 0.00000 0.00000 0.00000
	CHANNELS 6 Xposition Yposition Zposition Zrotation Yrotation Xrotation 
	JOINT LHipJoint
	{
		OFFSET 0 0 0
		CHANNELS 3 Zrotation Yrotation Xrotation
		JOINT LeftHip
		{
			OFFSET 1.53139 -1.83434 0.76626
			CHANNELS 3 Zrotation Yrotation Xrotation
			JOINT LeftKnee
			{
				OFFSET 2.56112 -7.03663 0.00000
				CHANNELS 3 Zrotation Yrotation Xrotation
				JOINT LeftAnkle
				{
					OFFSET 2.59983 -7.14299 0.00000
					CHANNELS 3 Zrotation Yrotation Xrotation
					JOINT LeftToe
					{
						OFFSET 0.13742 -0.37757 2.00054
						CHANNELS 3 Zrotation Yrotation Xrotation
						End Site
						{
							OFFSET 0.00000 -0.00000 1.02897
						}
					}
				}
			}
		}
	}
	JOINT RHipJoint
	{
		OFFSET 0 0 0
		CHANNELS 3 Zrotation Yrotation Xrotation
		JOINT RightHip
		{
			OFFSET -1.40122 -1.83435 0.76627
			CHANNELS 3 Zrotation Yrotation Xrotation
			JOINT RightKnee
			{
				OFFSET -2.54052 -6.98003 0.00000
				CHANNELS 3 Zrotation Yrotation Xrotation
				JOINT RightAnkle
				{
					OFFSET -2.63179 -7.23079 0.00000
					CHANNELS 3 Zrotation Yrotation Xrotation
					JOINT RightToe
					{
						OFFSET -0.24131 -0.66299 2.03908
						CHANNELS 3 Zrotation Yrotation Xrotation
						End Site
						{
							OFFSET -0.00000 -0.00000 1.07391
						}
					}
				}
			}
		}
	}
	JOINT lowerback
	{
		OFFSET 0 0 0
		CHANNELS 3 Zrotation Yrotation Xrotation
		JOINT Chest
		{
			OFFSET 0.01174 2.10302 -0.29778
			CHANNELS 3 Zrotation Yrotation Xrotation
			JOINT Chest2
			{
				OFFSET 0.00772 2.13227 -0.01247
				CHANNELS 3 Zrotation Yrotation Xrotation
				JOINT lowerneck
				{
					OFFSET 0 0 0
					CHANNELS 3 Zrotation Yrotation Xrotation
					JOINT Neck
					{
						OFFSET -0.09219 1.60848 0.31481
						CHANNELS 3 Zrotation Yrotation Xrotation
						JOINT Head
						{
							OFFSET 0.13974 1.65456 -0.31134
							CHANNELS 3 Zrotation Yrotation Xrotation
							End Site
							{
								OFFSET 0.04742 1.69515 -0.14578
							}
						}
					}
				}
				JOINT LeftCollar
				{
					OFFSET 0 0 0
					CHANNELS 3 Zrotation Yrotation Xrotation
					JOINT LeftShoulder
					{
						OFFSET 3.24909 1.02882 -0.23993
CHANNELS 3 Zrotation Xrotation Yrotation
						JOINT LeftElbow
						{
OFFSET 0 -5.329550 -0.000000
CHANNELS 3 Zrotation Xrotation Yrotation
							JOINT LeftWrist
							{
OFFSET 0 -3.692320 -0.000000
CHANNELS 3 Zrotation Xrotation Yrotation
								JOINT lhand
								{
									OFFSET 0 0 0
CHANNELS 3 Zrotation Xrotation Yrotation
									JOINT LFingers
									{
OFFSET 0 -0.536600 -0.000000
CHANNELS 3 Zrotation Xrotation Yrotation
										End Site
										{
OFFSET 0 -0.432620 -0.000000
										}
									}
								}
								JOINT LThumb
								{
OFFSET 0 0.000000 0.000000
CHANNELS 3 Zrotation Xrotation Yrotation
									End Site
									{
OFFSET 0 -0.439220 0.439220
									}
								}
							}
						}
					}
				}
				JOINT RightCollar
				{
					OFFSET 0 0 0
					CHANNELS 3 Zrotation Yrotation Xrotation
					JOINT RightShoulder
					{
						OFFSET -3.21387 0.93002 -0.34594
CHANNELS 3 Zrotation Xrotation Yrotation
						JOINT RightElbow
						{
OFFSET 0 -5.234310 0.000000
CHANNELS 3 Zrotation Xrotation Yrotation
							JOINT RightWrist
							{
OFFSET 0 -3.553010 -0.000000
CHANNELS 3 Zrotation Xrotation Yrotation
								JOINT rhand
								{
									OFFSET 0 0 0
CHANNELS 3 Zrotation Xrotation Yrotation
									JOINT RFingers
									{
OFFSET 0 -0.772520 -0.000000
CHANNELS 3 Zrotation Xrotation Yrotation
										End Site
										{
OFFSET 0 -0.622830 -0.000000
										}
									}
								}
								JOINT RThumb
								{
OFFSET 0 0.000000 0.000000
CHANNELS 3 Zrotation Xrotation Yrotation
									End Site
									{
OFFSET 0 -0.632340 0.632340
									}
								}
							}
						}
					}
				}
			}
		}
	}
}
MOTION
Frames: 4
Frame Time: 0.008333333333333333
15.460400 17.972800 -11.502800 -0.580000 -49.912300 0.595800 0.000000 0.000000 0.000000 -17.892700 -7.884700 -21.010200 6.289900 14.703500 46.134300 0.167100 -7.601800 -8.422800 0.107600 -2.115500 -5.825000 0.000000 0.000000 0.000000 27.156500 0.799600 -3.440000 -1.881800 -8.615500 24.599700 -1.105400 5.098600 -18.830300 -0.602600 -4.969100 13.820300 -0.338600 1.218600 11.505800 1.275100 1.619300 1.150700 1.269300 0.805900 -5.294200 -10.413000 -3.892000 -20.951500 7.234500 -4.253700 26.162700 3.805100 -2.032400 12.563600 0.000000 0.000000 0.000000 1.498900 4.794000 -20.634100 19.112500 -29.558200 5.086200 18.178700 15.457000 -24.972400 0.000000 0.000000 0.000000 -7.125000 0.000000 0.000000 -12.305500 55.668500 3.257200 0.000000 0.000000 0.000000 0.831000 3.221900 12.666100 -16.243200 -25.849300 -3.751400 -12.559600 9.165200 -8.512400 0.000000 0.000000 0.000000 7.125000 0.000000 -0.000000 10.321200 21.316900 5.958500
15.445441 17.968404 -11.494750 -0.423959 -49.940220 0.432508 0.000000 0.000000 0.000000 -18.041147 -7.883101 -21.104635 6.157553 14.578405 45.609025 0.190281 -7.461460 -8.733398 0.184393 -2.715342 -7.490180 0.000000 0.000000 0.000000 27.070515 0.835855 -3.371771 -1.902583 -8.660091 24.737756 -1.126868 5.075534 -19.019513 -0.616703 -5.025567 13.981423 -0.398892 1.263934 11.539886 1.205558 1.667488 1.174509 1.222368 0.830051 -5.289061 -10.476775 -3.894798 -20.733568 7.350746 -4.288414 26.028641 3.852032 -2.041136 12.474303 0.000000 0.000000 0.000000 1.507978 4.903451 -20.550170 19.196087 -29.661428 5.127537 18.284326 15.284059 -24.665114 0.000000 0.000000 0.000000 -7.125000 0.000000 0.000000 -12.050684 55.382510 3.105498 0.000000 0.000000 0.000000 0.918698 3.175710 12.266776 -16.116449 -25.678072 -3.696417 -12.586435 9.246789 -8.604666 0.000000 0.000000 0.000000 7.125000 0.000000 0.000000 10.297620 21.222978 5.966722
15.430482 17.962986 -11.486430 -0.296994 -49.973546 0.296929 0.000000 0.000000 0.000000 -18.177661 -7.852682 -21.208536 6.022738 14.449804 45.071758 0.217818 -7.249119 -9.086850 0.311689 -3.492775 -9.664935 0.000000 0.000000 0.000000 27.006155 0.874381 -3.286457 -1.917122 -8.691273 24.834291 -1.144192 5.046025 -19.172910 -0.630706 -5.081367 14.140700 -0.436793 1.309068 11.560093 1.139777 1.718359 1.203454 1.166666 0.854997 -5.270258 -10.533115 -3.898745 -20.549593 7.455880 -4.322134 25.927957 3.894424 -2.050070 12.404632 0.000000 0.000000 0.000000 1.507705 5.016408 -20.443451 19.292517 -29.780308 5.175359 18.338157 15.138675 -24.434370 0.000000 0.000000 0.000000 -7.125000 0.000000 0.000000 -11.885452 55.162719 2.996836 0.000000 0.000000 0.000000 1.006453 3.122269 11.892641 -15.995516 -25.514520 -3.644074 -12.626197 9.316742 -8.676001 0.000000 0.000000 0.000000 7.125000 0.000000 0.000000 10.265781 21.149562 5.965095
15.415523 17.954478 -11.477294 -0.257941 -50.023218 0.245144 0.000000 0.000000 0.000000 -18.278091 -7.735123 -21.341054 5.880457 14.310606 44.498237 0.258527 -6.819078 -9.569875 0.591684 -4.807163 -13.380402 0.000000 0.000000 0.000000 27.007183 0.919772 -3.149486 -1.912782 -8.681909 24.805287 -1.148988 4.997037 -19.218016 -0.644409 -5.135151 14.294401 -0.406989 1.353603 11.538340 1.085365 1.777338 1.247931 1.084449 0.882346 -5.210136 -10.566972 -3.906167 -20.468289 7.527421 -4.352852 25.928185 3.923085 -2.059605 12.394297 0.000000 0.000000 0.000000 1.479157 5.139962 -20.267826 19.427775 -29.946512 5.242788 18.235386 15.076613 -24.435055 0.000000 0.000000 0.000000 -7.125000 0.000000 0.000000 -11.991078 55.143078 3.018303 0.000000 0.000000 0.000000 1.094380 3.046903 11.594661 -15.892173 -25.374180 -3.599711 -12.705045 9.351513 -8.684051 0.000000 0.000000 0.000000 7.125000 0.000000 0.000000 10.208971 21.138143 5.933693
